<?xml version="1.0" encoding="UTF-8" standalone="no"?>
<!DOCTYPE svg PUBLIC "-//W3C//DTD SVG 1.1//EN"
 "http://www.w3.org/Graphics/SVG/1.1/DTD/svg11.dtd">
<!-- Generated by graphviz version 2.30.1 (20130405.1651)
 -->
<!-- Title: controllers_diagram Pages: 1 -->
<svg width="666pt" height="665pt"
 viewBox="0.00 0.00 665.60 665.00" xmlns="http://www.w3.org/2000/svg" xmlns:xlink="http://www.w3.org/1999/xlink">
<g id="graph0" class="graph" transform="scale(1 1) rotate(0) translate(4 661)">
<title>controllers_diagram</title>
<polygon fill="white" stroke="white" points="-4,5 -4,-661 662.604,-661 662.604,5 -4,5"/>
<!-- _diagram_info -->
<g id="node1" class="node"><title>_diagram_info</title>
<text text-anchor="start" x="328" y="-69" font-family="Times,serif" font-size="13.00">Controllers diagram</text>
<text text-anchor="start" x="328" y="-53.4" font-family="Times,serif" font-size="13.00">Date: Jul 17 2013 &#45; 23:59</text>
<text text-anchor="start" x="328" y="-37.8" font-family="Times,serif" font-size="13.00">Migration version: 20130718024447</text>
<text text-anchor="start" x="328" y="-22.2" font-family="Times,serif" font-size="13.00">Generated by RailRoady 1.1.0</text>
<text text-anchor="start" x="328" y="-6.6" font-family="Times,serif" font-size="13.00">http://railroady.prestonlee.com</text>
</g>
<!-- ActionItemsController -->
<g id="node2" class="node"><title>ActionItemsController</title>
<path fill="none" stroke="black" d="M152,-100.5C152,-100.5 270.752,-100.5 270.752,-100.5 276.752,-100.5 282.752,-106.5 282.752,-112.5 282.752,-112.5 282.752,-321.3 282.752,-321.3 282.752,-327.3 276.752,-333.3 270.752,-333.3 270.752,-333.3 152,-333.3 152,-333.3 146,-333.3 140,-327.3 140,-321.3 140,-321.3 140,-112.5 140,-112.5 140,-106.5 146,-100.5 152,-100.5"/>
<text text-anchor="middle" x="211.376" y="-315.3" font-family="Times,serif" font-size="14.00">ActionItemsController</text>
<polyline fill="none" stroke="black" points="140,-308.5 282.752,-308.5 "/>
<polyline fill="none" stroke="black" points="140,-284.5 282.752,-284.5 "/>
<text text-anchor="start" x="148" y="-266.5" font-family="Times,serif" font-size="14.00">collection_path</text>
<text text-anchor="start" x="148" y="-249.7" font-family="Times,serif" font-size="14.00">collection_url</text>
<text text-anchor="start" x="148" y="-232.9" font-family="Times,serif" font-size="14.00">edit_resource_path</text>
<text text-anchor="start" x="148" y="-216.1" font-family="Times,serif" font-size="14.00">edit_resource_url</text>
<text text-anchor="start" x="148" y="-199.3" font-family="Times,serif" font-size="14.00">new_resource_path</text>
<text text-anchor="start" x="148" y="-182.5" font-family="Times,serif" font-size="14.00">new_resource_url</text>
<text text-anchor="start" x="148" y="-165.7" font-family="Times,serif" font-size="14.00">resource_path</text>
<text text-anchor="start" x="148" y="-148.9" font-family="Times,serif" font-size="14.00">resource_url</text>
<polyline fill="none" stroke="black" points="140,-142.1 282.752,-142.1 "/>
<text text-anchor="start" x="148" y="-124.1" font-family="Times,serif" font-size="14.00">_layout</text>
<text text-anchor="start" x="148" y="-107.3" font-family="Times,serif" font-size="14.00">permitted_params</text>
</g>
<!-- ApplicationController -->
<g id="node3" class="node"><title>ApplicationController</title>
<path fill="none" stroke="black" d="M412,-401.116C412,-401.116 527.642,-401.116 527.642,-401.116 533.642,-401.116 539.642,-407.116 539.642,-413.116 539.642,-413.116 539.642,-486.716 539.642,-486.716 539.642,-492.716 533.642,-498.716 527.642,-498.716 527.642,-498.716 412,-498.716 412,-498.716 406,-498.716 400,-492.716 400,-486.716 400,-486.716 400,-413.116 400,-413.116 400,-407.116 406,-401.116 412,-401.116"/>
<text text-anchor="middle" x="469.821" y="-480.716" font-family="Times,serif" font-size="14.00">ApplicationController</text>
<polyline fill="none" stroke="black" points="400,-473.916 539.642,-473.916 "/>
<polyline fill="none" stroke="black" points="400,-449.916 539.642,-449.916 "/>
<polyline fill="none" stroke="black" points="400,-425.916 539.642,-425.916 "/>
<text text-anchor="start" x="408" y="-407.916" font-family="Times,serif" font-size="14.00">_layout</text>
</g>
<!-- HomeController -->
<g id="node4" class="node"><title>HomeController</title>
<path fill="none" stroke="black" d="M561.846,-400.5C561.846,-400.5 645.604,-400.5 645.604,-400.5 651.604,-400.5 657.604,-406.5 657.604,-412.5 657.604,-412.5 657.604,-486.9 657.604,-486.9 657.604,-492.9 651.604,-498.9 645.604,-498.9 645.604,-498.9 561.846,-498.9 561.846,-498.9 555.846,-498.9 549.846,-492.9 549.846,-486.9 549.846,-486.9 549.846,-412.5 549.846,-412.5 549.846,-406.5 555.846,-400.5 561.846,-400.5"/>
<text text-anchor="middle" x="603.725" y="-480.9" font-family="Times,serif" font-size="14.00">HomeController</text>
<polyline fill="none" stroke="black" points="549.846,-474.1 657.604,-474.1 "/>
<text text-anchor="start" x="557.846" y="-456.1" font-family="Times,serif" font-size="14.00">index</text>
<polyline fill="none" stroke="black" points="549.846,-449.3 657.604,-449.3 "/>
<polyline fill="none" stroke="black" points="549.846,-425.3 657.604,-425.3 "/>
<text text-anchor="start" x="557.846" y="-407.3" font-family="Times,serif" font-size="14.00">_layout</text>
</g>
<!-- ApplicationController&#45;&gt;HomeController -->
<g id="edge1" class="edge"><title>ApplicationController&#45;&gt;HomeController</title>
<path fill="none" stroke="black" d="M539.91,-449.803C543.201,-449.797 546.481,-449.792 549.719,-449.787"/>
</g>
<!-- ProjectsController -->
<g id="node5" class="node"><title>ProjectsController</title>
<path fill="none" stroke="black" d="M332,-120.5C332,-120.5 432.842,-120.5 432.842,-120.5 438.842,-120.5 444.842,-126.5 444.842,-132.5 444.842,-132.5 444.842,-342.1 444.842,-342.1 444.842,-348.1 438.842,-354.1 432.842,-354.1 432.842,-354.1 332,-354.1 332,-354.1 326,-354.1 320,-348.1 320,-342.1 320,-342.1 320,-132.5 320,-132.5 320,-126.5 326,-120.5 332,-120.5"/>
<text text-anchor="middle" x="382.421" y="-336.1" font-family="Times,serif" font-size="14.00">ProjectsController</text>
<polyline fill="none" stroke="black" points="320,-329.3 444.842,-329.3 "/>
<text text-anchor="start" x="328" y="-311.3" font-family="Times,serif" font-size="14.00">create</text>
<polyline fill="none" stroke="black" points="320,-304.5 444.842,-304.5 "/>
<text text-anchor="start" x="328" y="-286.5" font-family="Times,serif" font-size="14.00">collection_path</text>
<text text-anchor="start" x="328" y="-269.7" font-family="Times,serif" font-size="14.00">collection_url</text>
<text text-anchor="start" x="328" y="-252.9" font-family="Times,serif" font-size="14.00">edit_resource_path</text>
<text text-anchor="start" x="328" y="-236.1" font-family="Times,serif" font-size="14.00">edit_resource_url</text>
<text text-anchor="start" x="328" y="-219.3" font-family="Times,serif" font-size="14.00">new_resource_path</text>
<text text-anchor="start" x="328" y="-202.5" font-family="Times,serif" font-size="14.00">new_resource_url</text>
<text text-anchor="start" x="328" y="-185.7" font-family="Times,serif" font-size="14.00">resource_path</text>
<text text-anchor="start" x="328" y="-168.9" font-family="Times,serif" font-size="14.00">resource_url</text>
<polyline fill="none" stroke="black" points="320,-162.1 444.842,-162.1 "/>
<text text-anchor="start" x="328" y="-144.1" font-family="Times,serif" font-size="14.00">_layout</text>
<text text-anchor="start" x="328" y="-127.3" font-family="Times,serif" font-size="14.00">permitted_params</text>
</g>
<!-- ResourceController -->
<g id="node6" class="node"><title>ResourceController</title>
<path fill="none" stroke="black" d="M12,-440.5C12,-440.5 113.635,-440.5 113.635,-440.5 119.635,-440.5 125.635,-446.5 125.635,-452.5 125.635,-452.5 125.635,-644.5 125.635,-644.5 125.635,-650.5 119.635,-656.5 113.635,-656.5 113.635,-656.5 12,-656.5 12,-656.5 6,-656.5 -2.84217e-14,-650.5 -2.84217e-14,-644.5 -2.84217e-14,-644.5 -2.84217e-14,-452.5 -2.84217e-14,-452.5 -2.84217e-14,-446.5 6,-440.5 12,-440.5"/>
<text text-anchor="middle" x="62.8174" y="-638.5" font-family="Times,serif" font-size="14.00">ResourceController</text>
<polyline fill="none" stroke="black" points="-2.84217e-14,-631.7 125.635,-631.7 "/>
<polyline fill="none" stroke="black" points="-2.84217e-14,-607.7 125.635,-607.7 "/>
<text text-anchor="start" x="8" y="-589.7" font-family="Times,serif" font-size="14.00">collection_path</text>
<text text-anchor="start" x="8" y="-572.9" font-family="Times,serif" font-size="14.00">collection_url</text>
<text text-anchor="start" x="8" y="-556.1" font-family="Times,serif" font-size="14.00">edit_resource_path</text>
<text text-anchor="start" x="8" y="-539.3" font-family="Times,serif" font-size="14.00">edit_resource_url</text>
<text text-anchor="start" x="8" y="-522.5" font-family="Times,serif" font-size="14.00">new_resource_path</text>
<text text-anchor="start" x="8" y="-505.7" font-family="Times,serif" font-size="14.00">new_resource_url</text>
<text text-anchor="start" x="8" y="-488.9" font-family="Times,serif" font-size="14.00">resource_path</text>
<text text-anchor="start" x="8" y="-472.1" font-family="Times,serif" font-size="14.00">resource_url</text>
<polyline fill="none" stroke="black" points="-2.84217e-14,-465.3 125.635,-465.3 "/>
<text text-anchor="start" x="8" y="-447.3" font-family="Times,serif" font-size="14.00">_layout</text>
</g>
<!-- TasksController -->
<g id="node7" class="node"><title>TasksController</title>
<path fill="none" stroke="black" d="M172,-380.5C172,-380.5 272.842,-380.5 272.842,-380.5 278.842,-380.5 284.842,-386.5 284.842,-392.5 284.842,-392.5 284.842,-601.3 284.842,-601.3 284.842,-607.3 278.842,-613.3 272.842,-613.3 272.842,-613.3 172,-613.3 172,-613.3 166,-613.3 160,-607.3 160,-601.3 160,-601.3 160,-392.5 160,-392.5 160,-386.5 166,-380.5 172,-380.5"/>
<text text-anchor="middle" x="222.421" y="-595.3" font-family="Times,serif" font-size="14.00">TasksController</text>
<polyline fill="none" stroke="black" points="160,-588.5 284.842,-588.5 "/>
<polyline fill="none" stroke="black" points="160,-564.5 284.842,-564.5 "/>
<text text-anchor="start" x="168" y="-546.5" font-family="Times,serif" font-size="14.00">collection_path</text>
<text text-anchor="start" x="168" y="-529.7" font-family="Times,serif" font-size="14.00">collection_url</text>
<text text-anchor="start" x="168" y="-512.9" font-family="Times,serif" font-size="14.00">edit_resource_path</text>
<text text-anchor="start" x="168" y="-496.1" font-family="Times,serif" font-size="14.00">edit_resource_url</text>
<text text-anchor="start" x="168" y="-479.3" font-family="Times,serif" font-size="14.00">new_resource_path</text>
<text text-anchor="start" x="168" y="-462.5" font-family="Times,serif" font-size="14.00">new_resource_url</text>
<text text-anchor="start" x="168" y="-445.7" font-family="Times,serif" font-size="14.00">resource_path</text>
<text text-anchor="start" x="168" y="-428.9" font-family="Times,serif" font-size="14.00">resource_url</text>
<polyline fill="none" stroke="black" points="160,-422.1 284.842,-422.1 "/>
<text text-anchor="start" x="168" y="-404.1" font-family="Times,serif" font-size="14.00">_layout</text>
<text text-anchor="start" x="168" y="-387.3" font-family="Times,serif" font-size="14.00">permitted_params</text>
</g>
</g>
</svg>
