<?xml version="1.0" encoding="UTF-8" standalone="no"?>
<!DOCTYPE svg PUBLIC "-//W3C//DTD SVG 1.1//EN"
 "http://www.w3.org/Graphics/SVG/1.1/DTD/svg11.dtd">
<!-- Generated by graphviz version 2.30.1 (20130405.1651)
 -->
<!-- Title: models_diagram Pages: 1 -->
<svg width="588pt" height="892pt"
 viewBox="0.00 0.00 588.00 892.00" xmlns="http://www.w3.org/2000/svg" xmlns:xlink="http://www.w3.org/1999/xlink">
<g id="graph0" class="graph" transform="scale(1 1) rotate(0) translate(4 888)">
<title>models_diagram</title>
<polygon fill="white" stroke="white" points="-4,5 -4,-888 585,-888 585,5 -4,5"/>
<!-- _diagram_info -->
<g id="node1" class="node"><title>_diagram_info</title>
<text text-anchor="start" x="7.31226" y="-767" font-family="Times,serif" font-size="13.00">Models diagram</text>
<text text-anchor="start" x="7.31226" y="-751.4" font-family="Times,serif" font-size="13.00">Date: Jul 17 2013 &#45; 23:59</text>
<text text-anchor="start" x="7.31226" y="-735.8" font-family="Times,serif" font-size="13.00">Migration version: 20130718024447</text>
<text text-anchor="start" x="7.31226" y="-720.2" font-family="Times,serif" font-size="13.00">Generated by RailRoady 1.1.0</text>
<text text-anchor="start" x="7.31226" y="-704.6" font-family="Times,serif" font-size="13.00">http://railroady.prestonlee.com</text>
</g>
<!-- Action -->
<g id="node2" class="node"><title>Action</title>
<path fill="none" stroke="black" d="M300.484,-0.8C300.484,-0.8 409.516,-0.8 409.516,-0.8 415.516,-0.8 421.516,-6.8 421.516,-12.8 421.516,-12.8 421.516,-139.2 421.516,-139.2 421.516,-145.2 415.516,-151.2 409.516,-151.2 409.516,-151.2 300.484,-151.2 300.484,-151.2 294.484,-151.2 288.484,-145.2 288.484,-139.2 288.484,-139.2 288.484,-12.8 288.484,-12.8 288.484,-6.8 294.484,-0.8 300.484,-0.8"/>
<text text-anchor="middle" x="355" y="-133.2" font-family="Times,serif" font-size="14.00">Action</text>
<polyline fill="none" stroke="black" points="288.484,-126.4 421.516,-126.4 "/>
<text text-anchor="start" x="296.484" y="-108.4" font-family="Times,serif" font-size="14.00">id :integer</text>
<text text-anchor="start" x="296.484" y="-91.6" font-family="Times,serif" font-size="14.00">name :string</text>
<text text-anchor="start" x="296.484" y="-74.8" font-family="Times,serif" font-size="14.00">description :text</text>
<text text-anchor="start" x="296.484" y="-58" font-family="Times,serif" font-size="14.00">completed :boolean</text>
<text text-anchor="start" x="296.484" y="-41.2" font-family="Times,serif" font-size="14.00">in_progress :boolean</text>
<text text-anchor="start" x="296.484" y="-24.4" font-family="Times,serif" font-size="14.00">created_at :datetime</text>
<text text-anchor="start" x="296.484" y="-7.6" font-family="Times,serif" font-size="14.00">updated_at :datetime</text>
</g>
<!-- ActionItem -->
<g id="node3" class="node"><title>ActionItem</title>
<path fill="none" stroke="black" d="M459.484,-665.8C459.484,-665.8 568.516,-665.8 568.516,-665.8 574.516,-665.8 580.516,-671.8 580.516,-677.8 580.516,-677.8 580.516,-804.2 580.516,-804.2 580.516,-810.2 574.516,-816.2 568.516,-816.2 568.516,-816.2 459.484,-816.2 459.484,-816.2 453.484,-816.2 447.484,-810.2 447.484,-804.2 447.484,-804.2 447.484,-677.8 447.484,-677.8 447.484,-671.8 453.484,-665.8 459.484,-665.8"/>
<text text-anchor="middle" x="514" y="-798.2" font-family="Times,serif" font-size="14.00">ActionItem</text>
<polyline fill="none" stroke="black" points="447.484,-791.4 580.516,-791.4 "/>
<text text-anchor="start" x="455.484" y="-773.4" font-family="Times,serif" font-size="14.00">id :integer</text>
<text text-anchor="start" x="455.484" y="-756.6" font-family="Times,serif" font-size="14.00">name :string</text>
<text text-anchor="start" x="455.484" y="-739.8" font-family="Times,serif" font-size="14.00">description :text</text>
<text text-anchor="start" x="455.484" y="-723" font-family="Times,serif" font-size="14.00">completed :boolean</text>
<text text-anchor="start" x="455.484" y="-706.2" font-family="Times,serif" font-size="14.00">in_progress :boolean</text>
<text text-anchor="start" x="455.484" y="-689.4" font-family="Times,serif" font-size="14.00">created_at :datetime</text>
<text text-anchor="start" x="455.484" y="-672.6" font-family="Times,serif" font-size="14.00">updated_at :datetime</text>
</g>
<!-- Project -->
<g id="node4" class="node"><title>Project</title>
<path fill="none" stroke="black" d="M272.484,-377C272.484,-377 381.516,-377 381.516,-377 387.516,-377 393.516,-383 393.516,-389 393.516,-389 393.516,-549 393.516,-549 393.516,-555 387.516,-561 381.516,-561 381.516,-561 272.484,-561 272.484,-561 266.484,-561 260.484,-555 260.484,-549 260.484,-549 260.484,-389 260.484,-389 260.484,-383 266.484,-377 272.484,-377"/>
<text text-anchor="middle" x="327" y="-543" font-family="Times,serif" font-size="14.00">Project</text>
<polyline fill="none" stroke="black" points="260.484,-536.2 393.516,-536.2 "/>
<text text-anchor="start" x="268.484" y="-518.2" font-family="Times,serif" font-size="14.00">id :integer</text>
<text text-anchor="start" x="268.484" y="-501.4" font-family="Times,serif" font-size="14.00">user_id :integer</text>
<text text-anchor="start" x="268.484" y="-484.6" font-family="Times,serif" font-size="14.00">name :string</text>
<text text-anchor="start" x="268.484" y="-467.8" font-family="Times,serif" font-size="14.00">description :string</text>
<text text-anchor="start" x="268.484" y="-451" font-family="Times,serif" font-size="14.00">tags :string</text>
<text text-anchor="start" x="268.484" y="-434.2" font-family="Times,serif" font-size="14.00">completed :boolean</text>
<text text-anchor="start" x="268.484" y="-417.4" font-family="Times,serif" font-size="14.00">in_progress :boolean</text>
<text text-anchor="start" x="268.484" y="-400.6" font-family="Times,serif" font-size="14.00">created_at :datetime</text>
<text text-anchor="start" x="268.484" y="-383.8" font-family="Times,serif" font-size="14.00">updated_at :datetime</text>
</g>
<!-- Task -->
<g id="node5" class="node"><title>Task</title>
<path fill="none" stroke="black" d="M205.484,-188.8C205.484,-188.8 314.516,-188.8 314.516,-188.8 320.516,-188.8 326.516,-194.8 326.516,-200.8 326.516,-200.8 326.516,-327.2 326.516,-327.2 326.516,-333.2 320.516,-339.2 314.516,-339.2 314.516,-339.2 205.484,-339.2 205.484,-339.2 199.484,-339.2 193.484,-333.2 193.484,-327.2 193.484,-327.2 193.484,-200.8 193.484,-200.8 193.484,-194.8 199.484,-188.8 205.484,-188.8"/>
<text text-anchor="middle" x="260" y="-321.2" font-family="Times,serif" font-size="14.00">Task</text>
<polyline fill="none" stroke="black" points="193.484,-314.4 326.516,-314.4 "/>
<text text-anchor="start" x="201.484" y="-296.4" font-family="Times,serif" font-size="14.00">id :integer</text>
<text text-anchor="start" x="201.484" y="-279.6" font-family="Times,serif" font-size="14.00">name :string</text>
<text text-anchor="start" x="201.484" y="-262.8" font-family="Times,serif" font-size="14.00">description :text</text>
<text text-anchor="start" x="201.484" y="-246" font-family="Times,serif" font-size="14.00">completed :boolean</text>
<text text-anchor="start" x="201.484" y="-229.2" font-family="Times,serif" font-size="14.00">in_progress :boolean</text>
<text text-anchor="start" x="201.484" y="-212.4" font-family="Times,serif" font-size="14.00">created_at :datetime</text>
<text text-anchor="start" x="201.484" y="-195.6" font-family="Times,serif" font-size="14.00">updated_at :datetime</text>
</g>
<!-- Project&#45;&gt;Task -->
<g id="edge1" class="edge"><title>Project&#45;&gt;Task</title>
<path fill="none" stroke="#6fe57a" d="M294.4,-369.228C292.174,-362.483 289.943,-355.723 287.746,-349.065"/>
<ellipse fill="none" stroke="#6fe57a" cx="295.676" cy="-373.093" rx="4.00001" ry="4.00001"/>
<polygon fill="#6fe57a" stroke="#6fe57a" points="287.689,-348.894 288.828,-337.988 286.122,-344.146 284.555,-339.398 284.555,-339.398 284.555,-339.398 286.122,-344.146 280.282,-340.809 287.689,-348.894 287.689,-348.894"/>
</g>
<!-- Project&#45;&gt;Action -->
<g id="edge2" class="edge"><title>Project&#45;&gt;Action</title>
<path fill="none" stroke="#80b248" d="M334.261,-366.605C338.822,-302.908 344.637,-221.708 348.948,-161.507"/>
<polygon fill="#80b248" stroke="#80b248" points="334.244,-366.847 329.041,-376.5 333.887,-371.834 333.529,-376.821 333.529,-376.821 333.529,-376.821 333.887,-371.834 338.018,-377.143 334.244,-366.847 334.244,-366.847"/>
<polygon fill="#80b248" stroke="#80b248" points="348.967,-161.252 354.169,-151.599 349.324,-156.264 349.681,-151.277 349.681,-151.277 349.681,-151.277 349.324,-156.264 345.192,-150.956 348.967,-161.252 348.967,-161.252"/>
</g>
<!-- Task&#45;&gt;Action -->
<g id="edge3" class="edge"><title>Task&#45;&gt;Action</title>
<path fill="none" stroke="#3f54d0" d="M301.643,-181.467C305.143,-174.615 308.686,-167.679 312.194,-160.81"/>
<ellipse fill="none" stroke="#3f54d0" cx="299.776" cy="-185.124" rx="4.00002" ry="4.00002"/>
<polygon fill="#3f54d0" stroke="#3f54d0" points="312.401,-160.405 320.957,-153.546 314.675,-155.952 316.949,-151.5 316.949,-151.5 316.949,-151.5 314.675,-155.952 312.942,-149.453 312.401,-160.405 312.401,-160.405"/>
</g>
<!-- User -->
<g id="node6" class="node"><title>User</title>
<path fill="none" stroke="black" d="M236.722,-598.6C236.722,-598.6 417.278,-598.6 417.278,-598.6 423.278,-598.6 429.278,-604.6 429.278,-610.6 429.278,-610.6 429.278,-871.4 429.278,-871.4 429.278,-877.4 423.278,-883.4 417.278,-883.4 417.278,-883.4 236.722,-883.4 236.722,-883.4 230.722,-883.4 224.722,-877.4 224.722,-871.4 224.722,-871.4 224.722,-610.6 224.722,-610.6 224.722,-604.6 230.722,-598.6 236.722,-598.6"/>
<text text-anchor="middle" x="327" y="-865.4" font-family="Times,serif" font-size="14.00">User</text>
<polyline fill="none" stroke="black" points="224.722,-858.6 429.278,-858.6 "/>
<text text-anchor="start" x="232.722" y="-840.6" font-family="Times,serif" font-size="14.00">id :integer</text>
<text text-anchor="start" x="232.722" y="-823.8" font-family="Times,serif" font-size="14.00">email :string</text>
<text text-anchor="start" x="232.722" y="-807" font-family="Times,serif" font-size="14.00">encrypted_password :string</text>
<text text-anchor="start" x="232.722" y="-790.2" font-family="Times,serif" font-size="14.00">reset_password_token :string</text>
<text text-anchor="start" x="232.722" y="-773.4" font-family="Times,serif" font-size="14.00">reset_password_sent_at :datetime</text>
<text text-anchor="start" x="232.722" y="-756.6" font-family="Times,serif" font-size="14.00">remember_created_at :datetime</text>
<text text-anchor="start" x="232.722" y="-739.8" font-family="Times,serif" font-size="14.00">sign_in_count :integer</text>
<text text-anchor="start" x="232.722" y="-723" font-family="Times,serif" font-size="14.00">current_sign_in_at :datetime</text>
<text text-anchor="start" x="232.722" y="-706.2" font-family="Times,serif" font-size="14.00">last_sign_in_at :datetime</text>
<text text-anchor="start" x="232.722" y="-689.4" font-family="Times,serif" font-size="14.00">current_sign_in_ip :string</text>
<text text-anchor="start" x="232.722" y="-672.6" font-family="Times,serif" font-size="14.00">last_sign_in_ip :string</text>
<text text-anchor="start" x="232.722" y="-655.8" font-family="Times,serif" font-size="14.00">first_name :string</text>
<text text-anchor="start" x="232.722" y="-639" font-family="Times,serif" font-size="14.00">last_name :string</text>
<text text-anchor="start" x="232.722" y="-622.2" font-family="Times,serif" font-size="14.00">created_at :datetime</text>
<text text-anchor="start" x="232.722" y="-605.4" font-family="Times,serif" font-size="14.00">updated_at :datetime</text>
</g>
<!-- User&#45;&gt;Project -->
<g id="edge4" class="edge"><title>User&#45;&gt;Project</title>
<path fill="none" stroke="#dfd62f" d="M327,-590.023C327,-583.742 327,-577.505 327,-571.368"/>
<ellipse fill="none" stroke="#dfd62f" cx="327" cy="-594.279" rx="4" ry="4"/>
<polygon fill="#dfd62f" stroke="#dfd62f" points="327,-571.141 331.5,-561.141 327,-566.141 327,-561.141 327,-561.141 327,-561.141 327,-566.141 322.5,-561.141 327,-571.141 327,-571.141"/>
</g>
<!-- User&#45;&gt;Task -->
<g id="edge5" class="edge"><title>User&#45;&gt;Task</title>
<path fill="none" stroke="#ebf7b7" d="M257.666,-588.665C255.065,-579.752 252.805,-570.824 251,-562 236.561,-491.411 240.556,-409.441 247.169,-349.52"/>
<polygon fill="#ebf7b7" stroke="#ebf7b7" points="257.695,-588.761 256.311,-599.639 259.155,-593.543 260.615,-598.325 260.615,-598.325 260.615,-598.325 259.155,-593.543 264.919,-597.011 257.695,-588.761 257.695,-588.761"/>
<polygon fill="#ebf7b7" stroke="#ebf7b7" points="247.196,-349.282 252.81,-339.863 247.768,-344.315 248.34,-339.348 248.34,-339.348 248.34,-339.348 247.768,-344.315 243.869,-338.833 247.196,-349.282 247.196,-349.282"/>
</g>
<!-- User&#45;&gt;Action -->
<g id="edge6" class="edge"><title>User&#45;&gt;Action</title>
<path fill="none" stroke="#ddf085" d="M395.424,-588.632C397.99,-579.728 400.22,-570.811 402,-562 430.065,-423.111 401.285,-258.344 378.031,-161.02"/>
<polygon fill="#ddf085" stroke="#ddf085" points="395.401,-588.71 388.206,-596.985 393.957,-593.497 392.514,-598.284 392.514,-598.284 392.514,-598.284 393.957,-593.497 396.822,-599.583 395.401,-588.71 395.401,-588.71"/>
<polygon fill="#ddf085" stroke="#ddf085" points="378.015,-160.953 380.03,-150.174 376.836,-156.094 375.657,-151.235 375.657,-151.235 375.657,-151.235 376.836,-156.094 371.284,-152.296 378.015,-160.953 378.015,-160.953"/>
</g>
</g>
</svg>
