<?xml version="1.0" encoding="UTF-8" standalone="no"?>
<!DOCTYPE svg PUBLIC "-//W3C//DTD SVG 1.1//EN"
 "http://www.w3.org/Graphics/SVG/1.1/DTD/svg11.dtd">
<!-- Generated by graphviz version 2.30.1 (20130405.1651)
 -->
<!-- Title: models_diagram Pages: 1 -->
<svg width="419pt" height="310pt"
 viewBox="0.00 0.00 419.00 310.00" xmlns="http://www.w3.org/2000/svg" xmlns:xlink="http://www.w3.org/1999/xlink">
<g id="graph0" class="graph" transform="scale(1 1) rotate(0) translate(4 306)">
<title>models_diagram</title>
<polygon fill="white" stroke="white" points="-4,5 -4,-306 416,-306 416,5 -4,5"/>
<!-- _diagram_info -->
<g id="node1" class="node"><title>_diagram_info</title>
<text text-anchor="start" x="7.31226" y="-285" font-family="Times,serif" font-size="13.00">Models diagram</text>
<text text-anchor="start" x="7.31226" y="-269.4" font-family="Times,serif" font-size="13.00">Date: Jul 17 2013 &#45; 23:59</text>
<text text-anchor="start" x="7.31226" y="-253.8" font-family="Times,serif" font-size="13.00">Migration version: 20130718024447</text>
<text text-anchor="start" x="7.31226" y="-238.2" font-family="Times,serif" font-size="13.00">Generated by RailRoady 1.1.0</text>
<text text-anchor="start" x="7.31226" y="-222.6" font-family="Times,serif" font-size="13.00">http://railroady.prestonlee.com</text>
</g>
<!-- Action -->
<g id="node2" class="node"><title>Action</title>
<ellipse fill="none" stroke="black" cx="268" cy="-18" rx="36.9811" ry="18"/>
<text text-anchor="middle" x="268" y="-12.4" font-family="Times,serif" font-size="14.00">Action</text>
</g>
<!-- ActionItem -->
<g id="node3" class="node"><title>ActionItem</title>
<ellipse fill="none" stroke="black" cx="356" cy="-259" rx="55.0242" ry="18"/>
<text text-anchor="middle" x="356" y="-253.4" font-family="Times,serif" font-size="14.00">ActionItem</text>
</g>
<!-- Project -->
<g id="node4" class="node"><title>Project</title>
<ellipse fill="none" stroke="black" cx="254" cy="-162" rx="38.0859" ry="18"/>
<text text-anchor="middle" x="254" y="-156.4" font-family="Times,serif" font-size="14.00">Project</text>
</g>
<!-- Task -->
<g id="node5" class="node"><title>Task</title>
<ellipse fill="none" stroke="black" cx="211" cy="-90" rx="29.2011" ry="18"/>
<text text-anchor="middle" x="211" y="-84.4" font-family="Times,serif" font-size="14.00">Task</text>
</g>
<!-- Project&#45;&gt;Task -->
<g id="edge1" class="edge"><title>Project&#45;&gt;Task</title>
<path fill="none" stroke="#fcd4ac" d="M239.516,-137.421C235.191,-130.38 230.44,-122.647 226.078,-115.545"/>
<ellipse fill="none" stroke="#fcd4ac" cx="241.716" cy="-141.003" rx="4.00002" ry="4.00002"/>
<polygon fill="#fcd4ac" stroke="#fcd4ac" points="226.055,-115.509 224.656,-104.633 223.438,-111.248 220.821,-106.988 220.821,-106.988 220.821,-106.988 223.438,-111.248 216.987,-109.344 226.055,-115.509 226.055,-115.509"/>
</g>
<!-- Project&#45;&gt;Action -->
<g id="edge2" class="edge"><title>Project&#45;&gt;Action</title>
<path fill="none" stroke="#cd03c0" d="M256.694,-133.679C259.177,-108.487 262.844,-71.2953 265.323,-46.1555"/>
<polygon fill="#cd03c0" stroke="#cd03c0" points="256.67,-133.92 251.21,-143.43 256.179,-138.896 255.689,-143.871 255.689,-143.871 255.689,-143.871 256.179,-138.896 260.167,-144.313 256.67,-133.92 256.67,-133.92"/>
<polygon fill="#cd03c0" stroke="#cd03c0" points="265.324,-46.141 270.784,-36.6308 265.815,-41.1651 266.305,-36.1893 266.305,-36.1893 266.305,-36.1893 265.815,-41.1651 261.827,-35.7477 265.324,-46.141 265.324,-46.141"/>
</g>
<!-- Task&#45;&gt;Action -->
<g id="edge3" class="edge"><title>Task&#45;&gt;Action</title>
<path fill="none" stroke="#41a4a1" d="M228.713,-67.2468C235.019,-59.5025 242.152,-50.7433 248.592,-42.8338"/>
<ellipse fill="none" stroke="#41a4a1" cx="226.176" cy="-70.363" rx="4.00002" ry="4.00002"/>
<polygon fill="#41a4a1" stroke="#41a4a1" points="248.676,-42.7315 258.48,-37.8186 251.833,-38.8543 254.99,-34.9772 254.99,-34.9772 254.99,-34.9772 251.833,-38.8543 251.501,-32.1357 248.676,-42.7315 248.676,-42.7315"/>
</g>
<!-- User -->
<g id="node6" class="node"><title>User</title>
<ellipse fill="none" stroke="black" cx="254" cy="-259" rx="28.9087" ry="18"/>
<text text-anchor="middle" x="254" y="-253.4" font-family="Times,serif" font-size="14.00">User</text>
</g>
<!-- User&#45;&gt;Project -->
<g id="edge4" class="edge"><title>User&#45;&gt;Project</title>
<path fill="none" stroke="#462f7a" d="M254,-232.414C254,-219.518 254,-203.862 254,-190.685"/>
<ellipse fill="none" stroke="#462f7a" cx="254" cy="-236.576" rx="4" ry="4"/>
<polygon fill="#462f7a" stroke="#462f7a" points="254,-190.314 258.5,-180.314 254,-185.314 254,-180.314 254,-180.314 254,-180.314 254,-185.314 249.5,-180.314 254,-190.314 254,-190.314"/>
</g>
<!-- User&#45;&gt;Task -->
<g id="edge5" class="edge"><title>User&#45;&gt;Task</title>
<path fill="none" stroke="#91cd7d" d="M235.352,-234.725C224.77,-219.985 212.558,-199.991 207,-180 201.382,-159.79 202.839,-136.015 205.451,-118.124"/>
<polygon fill="#91cd7d" stroke="#91cd7d" points="235.36,-234.736 237.723,-245.444 238.346,-238.746 241.332,-242.757 241.332,-242.757 241.332,-242.757 238.346,-238.746 244.942,-240.069 235.36,-234.736 235.36,-234.736"/>
<polygon fill="#91cd7d" stroke="#91cd7d" points="205.48,-117.95 211.565,-108.827 206.303,-113.018 207.126,-108.086 207.126,-108.086 207.126,-108.086 206.303,-113.018 202.688,-107.345 205.48,-117.95 205.48,-117.95"/>
</g>
<!-- User&#45;&gt;Action -->
<g id="edge6" class="edge"><title>User&#45;&gt;Action</title>
<path fill="none" stroke="#bea457" d="M272.648,-234.725C283.23,-219.985 295.442,-199.991 301,-180 314.09,-132.915 294.891,-76.7641 280.751,-44.7565"/>
<polygon fill="#bea457" stroke="#bea457" points="272.64,-234.736 263.058,-240.069 269.654,-238.746 266.668,-242.757 266.668,-242.757 266.668,-242.757 269.654,-238.746 270.277,-245.444 272.64,-234.736 272.64,-234.736"/>
<polygon fill="#bea457" stroke="#bea457" points="280.736,-44.7241 280.656,-33.7585 278.651,-40.1796 276.566,-35.635 276.566,-35.635 276.566,-35.635 278.651,-40.1796 272.476,-37.5114 280.736,-44.7241 280.736,-44.7241"/>
</g>
</g>
</svg>
